<mxfile host="app.diagrams.net" modified="2024-01-06T00:03:53.774Z" agent="Mozilla/5.0 (Windows NT 10.0; Win64; x64) AppleWebKit/537.36 (KHTML, like Gecko) Chrome/120.0.0.0 Safari/537.36" etag="gj_ya9y1ytIk5QCeFfyw" version="22.1.16" type="device">
  <diagram name="Страница — 1" id="awgZQZ2jNbD-N3x762fQ">
    <mxGraphModel dx="1025" dy="509" grid="1" gridSize="10" guides="1" tooltips="1" connect="1" arrows="1" fold="1" page="1" pageScale="1" pageWidth="1169" pageHeight="827" math="0" shadow="0">
      <root>
        <mxCell id="0" />
        <mxCell id="1" parent="0" />
        <mxCell id="49Ez8LQvkiXUo5bIbuk2-1" value="PHASE" style="rounded=0;whiteSpace=wrap;html=1;strokeWidth=2;shadow=1;" vertex="1" parent="1">
          <mxGeometry x="270" y="56.5" width="50" height="82" as="geometry" />
        </mxCell>
        <mxCell id="49Ez8LQvkiXUo5bIbuk2-2" value="LP &lt;br&gt;filter" style="rounded=0;whiteSpace=wrap;html=1;strokeWidth=2;" vertex="1" parent="1">
          <mxGeometry x="100" y="50" width="40" height="60" as="geometry" />
        </mxCell>
        <mxCell id="49Ez8LQvkiXUo5bIbuk2-3" value="" style="shape=flexArrow;endArrow=classic;html=1;rounded=0;exitX=1;exitY=0.5;exitDx=0;exitDy=0;" edge="1" parent="1" source="49Ez8LQvkiXUo5bIbuk2-102">
          <mxGeometry width="50" height="50" relative="1" as="geometry">
            <mxPoint x="200" y="249.5" as="sourcePoint" />
            <mxPoint x="300" y="250" as="targetPoint" />
          </mxGeometry>
        </mxCell>
        <mxCell id="49Ez8LQvkiXUo5bIbuk2-4" value="PHASE_INC" style="text;html=1;align=center;verticalAlign=middle;resizable=0;points=[];autosize=1;strokeColor=none;fillColor=none;" vertex="1" parent="1">
          <mxGeometry x="10" y="40" width="90" height="30" as="geometry" />
        </mxCell>
        <mxCell id="49Ez8LQvkiXUo5bIbuk2-9" style="edgeStyle=orthogonalEdgeStyle;rounded=0;orthogonalLoop=1;jettySize=auto;html=1;exitX=1;exitY=0.5;exitDx=0;exitDy=0;entryX=0;entryY=0.5;entryDx=0;entryDy=0;" edge="1" parent="1" source="49Ez8LQvkiXUo5bIbuk2-7" target="49Ez8LQvkiXUo5bIbuk2-1">
          <mxGeometry relative="1" as="geometry" />
        </mxCell>
        <mxCell id="49Ez8LQvkiXUo5bIbuk2-7" value="" style="shape=orEllipse;perimeter=ellipsePerimeter;whiteSpace=wrap;html=1;backgroundOutline=1;strokeWidth=2;shadow=0;" vertex="1" parent="1">
          <mxGeometry x="200" y="72" width="50" height="51" as="geometry" />
        </mxCell>
        <mxCell id="49Ez8LQvkiXUo5bIbuk2-12" value="SIN&lt;br&gt;&lt;br&gt;table" style="rounded=0;whiteSpace=wrap;html=1;strokeWidth=2;perimeterSpacing=2;shadow=1;" vertex="1" parent="1">
          <mxGeometry x="360" y="60" width="50" height="82" as="geometry" />
        </mxCell>
        <mxCell id="49Ez8LQvkiXUo5bIbuk2-13" value="COS&lt;br&gt;&lt;br&gt;table" style="rounded=0;whiteSpace=wrap;html=1;strokeWidth=2;shadow=1;" vertex="1" parent="1">
          <mxGeometry x="360" y="300" width="50" height="82" as="geometry" />
        </mxCell>
        <mxCell id="49Ez8LQvkiXUo5bIbuk2-15" value="" style="edgeStyle=elbowEdgeStyle;elbow=horizontal;endArrow=classic;html=1;curved=0;rounded=0;endSize=8;startSize=8;entryX=0;entryY=0.5;entryDx=0;entryDy=0;exitX=1;exitY=0.5;exitDx=0;exitDy=0;" edge="1" parent="1" source="49Ez8LQvkiXUo5bIbuk2-1">
          <mxGeometry width="50" height="50" relative="1" as="geometry">
            <mxPoint x="280" y="257" as="sourcePoint" />
            <mxPoint x="360" y="98" as="targetPoint" />
          </mxGeometry>
        </mxCell>
        <mxCell id="49Ez8LQvkiXUo5bIbuk2-16" value="" style="edgeStyle=elbowEdgeStyle;elbow=horizontal;endArrow=classic;html=1;curved=0;rounded=0;endSize=8;startSize=8;entryX=0;entryY=0.5;entryDx=0;entryDy=0;exitX=1;exitY=0.5;exitDx=0;exitDy=0;" edge="1" parent="1" source="49Ez8LQvkiXUo5bIbuk2-1" target="49Ez8LQvkiXUo5bIbuk2-13">
          <mxGeometry width="50" height="50" relative="1" as="geometry">
            <mxPoint x="230" y="320" as="sourcePoint" />
            <mxPoint x="280" y="270" as="targetPoint" />
          </mxGeometry>
        </mxCell>
        <mxCell id="49Ez8LQvkiXUo5bIbuk2-17" value="" style="shape=sumEllipse;perimeter=ellipsePerimeter;whiteSpace=wrap;html=1;backgroundOutline=1;strokeWidth=2;" vertex="1" parent="1">
          <mxGeometry x="450" y="160" width="50" height="50" as="geometry" />
        </mxCell>
        <mxCell id="49Ez8LQvkiXUo5bIbuk2-18" value="" style="shape=sumEllipse;perimeter=ellipsePerimeter;whiteSpace=wrap;html=1;backgroundOutline=1;strokeWidth=2;" vertex="1" parent="1">
          <mxGeometry x="450" y="389" width="50" height="50" as="geometry" />
        </mxCell>
        <mxCell id="49Ez8LQvkiXUo5bIbuk2-21" value="" style="endArrow=classic;html=1;rounded=0;entryX=0;entryY=0;entryDx=0;entryDy=0;exitX=1;exitY=0.5;exitDx=0;exitDy=0;" edge="1" parent="1" source="49Ez8LQvkiXUo5bIbuk2-12" target="49Ez8LQvkiXUo5bIbuk2-17">
          <mxGeometry width="50" height="50" relative="1" as="geometry">
            <mxPoint x="440" y="123" as="sourcePoint" />
            <mxPoint x="508.78679656440363" y="151.78679656440363" as="targetPoint" />
          </mxGeometry>
        </mxCell>
        <mxCell id="49Ez8LQvkiXUo5bIbuk2-22" value="" style="endArrow=classic;html=1;rounded=0;entryX=0;entryY=0;entryDx=0;entryDy=0;exitX=1;exitY=0.5;exitDx=0;exitDy=0;" edge="1" parent="1" source="49Ez8LQvkiXUo5bIbuk2-13" target="49Ez8LQvkiXUo5bIbuk2-18">
          <mxGeometry width="50" height="50" relative="1" as="geometry">
            <mxPoint x="440" y="390" as="sourcePoint" />
            <mxPoint x="495" y="424" as="targetPoint" />
          </mxGeometry>
        </mxCell>
        <mxCell id="49Ez8LQvkiXUo5bIbuk2-23" value="ADC&lt;br&gt;sample" style="rounded=0;whiteSpace=wrap;html=1;strokeWidth=2;" vertex="1" parent="1">
          <mxGeometry x="360" y="460" width="50" height="82" as="geometry" />
        </mxCell>
        <mxCell id="49Ez8LQvkiXUo5bIbuk2-24" value="MUX" style="verticalLabelPosition=middle;verticalAlign=middle;html=1;shape=trapezoid;perimeter=trapezoidPerimeter;whiteSpace=wrap;size=0.23;arcSize=10;flipV=1;labelPosition=center;align=center;direction=south;strokeWidth=1;" vertex="1" parent="1">
          <mxGeometry x="580" y="240" width="40" height="118" as="geometry" />
        </mxCell>
        <mxCell id="49Ez8LQvkiXUo5bIbuk2-25" value="SIN&lt;br&gt;&lt;br&gt;acc" style="rounded=0;whiteSpace=wrap;html=1;strokeWidth=2;glass=0;shadow=1;" vertex="1" parent="1">
          <mxGeometry x="720" y="220" width="40" height="80" as="geometry" />
        </mxCell>
        <mxCell id="49Ez8LQvkiXUo5bIbuk2-26" value="" style="shape=orEllipse;perimeter=ellipsePerimeter;whiteSpace=wrap;html=1;backgroundOutline=1;strokeWidth=2;" vertex="1" parent="1">
          <mxGeometry x="640" y="234.5" width="50" height="51" as="geometry" />
        </mxCell>
        <mxCell id="49Ez8LQvkiXUo5bIbuk2-27" value="" style="shape=flexArrow;endArrow=classic;html=1;rounded=0;entryX=0;entryY=0.5;entryDx=0;entryDy=0;" edge="1" parent="1" target="49Ez8LQvkiXUo5bIbuk2-23">
          <mxGeometry width="50" height="50" relative="1" as="geometry">
            <mxPoint x="240" y="501" as="sourcePoint" />
            <mxPoint x="370" y="524" as="targetPoint" />
          </mxGeometry>
        </mxCell>
        <mxCell id="49Ez8LQvkiXUo5bIbuk2-31" value="" style="endArrow=classic;html=1;rounded=0;entryX=0;entryY=1;entryDx=0;entryDy=0;exitX=1;exitY=0.5;exitDx=0;exitDy=0;" edge="1" parent="1" source="49Ez8LQvkiXUo5bIbuk2-23" target="49Ez8LQvkiXUo5bIbuk2-17">
          <mxGeometry width="50" height="50" relative="1" as="geometry">
            <mxPoint x="440" y="460" as="sourcePoint" />
            <mxPoint x="370" y="340" as="targetPoint" />
          </mxGeometry>
        </mxCell>
        <mxCell id="49Ez8LQvkiXUo5bIbuk2-32" value="" style="endArrow=classic;html=1;rounded=0;entryX=0;entryY=1;entryDx=0;entryDy=0;exitX=1;exitY=0.5;exitDx=0;exitDy=0;" edge="1" parent="1" source="49Ez8LQvkiXUo5bIbuk2-23" target="49Ez8LQvkiXUo5bIbuk2-18">
          <mxGeometry width="50" height="50" relative="1" as="geometry">
            <mxPoint x="440" y="514" as="sourcePoint" />
            <mxPoint x="490" y="464" as="targetPoint" />
          </mxGeometry>
        </mxCell>
        <mxCell id="49Ez8LQvkiXUo5bIbuk2-34" value="" style="endArrow=classic;html=1;rounded=0;entryX=0;entryY=1;entryDx=0;entryDy=0;exitX=0.5;exitY=0;exitDx=0;exitDy=0;" edge="1" parent="1" source="49Ez8LQvkiXUo5bIbuk2-24" target="49Ez8LQvkiXUo5bIbuk2-26">
          <mxGeometry width="50" height="50" relative="1" as="geometry">
            <mxPoint x="650" y="310" as="sourcePoint" />
            <mxPoint x="700" y="260" as="targetPoint" />
          </mxGeometry>
        </mxCell>
        <mxCell id="49Ez8LQvkiXUo5bIbuk2-35" value="" style="endArrow=none;html=1;rounded=0;" edge="1" parent="1">
          <mxGeometry width="50" height="50" relative="1" as="geometry">
            <mxPoint x="560" y="380" as="sourcePoint" />
            <mxPoint x="560" y="330" as="targetPoint" />
          </mxGeometry>
        </mxCell>
        <mxCell id="49Ez8LQvkiXUo5bIbuk2-36" value="" style="endArrow=classic;html=1;rounded=0;entryX=0.75;entryY=1;entryDx=0;entryDy=0;" edge="1" parent="1" target="49Ez8LQvkiXUo5bIbuk2-24">
          <mxGeometry width="50" height="50" relative="1" as="geometry">
            <mxPoint x="560" y="329" as="sourcePoint" />
            <mxPoint x="610" y="322" as="targetPoint" />
          </mxGeometry>
        </mxCell>
        <mxCell id="49Ez8LQvkiXUo5bIbuk2-37" value="" style="endArrow=none;html=1;rounded=0;" edge="1" parent="1">
          <mxGeometry width="50" height="50" relative="1" as="geometry">
            <mxPoint x="560" y="380" as="sourcePoint" />
            <mxPoint x="780" y="380" as="targetPoint" />
          </mxGeometry>
        </mxCell>
        <mxCell id="49Ez8LQvkiXUo5bIbuk2-39" value="" style="endArrow=none;html=1;rounded=0;" edge="1" parent="1">
          <mxGeometry width="50" height="50" relative="1" as="geometry">
            <mxPoint x="780" y="380" as="sourcePoint" />
            <mxPoint x="780" y="260" as="targetPoint" />
          </mxGeometry>
        </mxCell>
        <mxCell id="49Ez8LQvkiXUo5bIbuk2-40" value="" style="endArrow=classic;html=1;rounded=0;entryX=0;entryY=0.5;entryDx=0;entryDy=0;exitX=1;exitY=0.5;exitDx=0;exitDy=0;" edge="1" parent="1" source="49Ez8LQvkiXUo5bIbuk2-26" target="49Ez8LQvkiXUo5bIbuk2-25">
          <mxGeometry width="50" height="50" relative="1" as="geometry">
            <mxPoint x="750" y="230" as="sourcePoint" />
            <mxPoint x="800" y="180" as="targetPoint" />
          </mxGeometry>
        </mxCell>
        <mxCell id="49Ez8LQvkiXUo5bIbuk2-43" value="" style="endArrow=classic;html=1;rounded=0;entryX=0;entryY=0;entryDx=0;entryDy=0;exitX=1;exitY=0.5;exitDx=0;exitDy=0;" edge="1" parent="1" source="49Ez8LQvkiXUo5bIbuk2-17" target="49Ez8LQvkiXUo5bIbuk2-26">
          <mxGeometry width="50" height="50" relative="1" as="geometry">
            <mxPoint x="580" y="170" as="sourcePoint" />
            <mxPoint x="610" y="140" as="targetPoint" />
          </mxGeometry>
        </mxCell>
        <mxCell id="49Ez8LQvkiXUo5bIbuk2-44" value="" style="endArrow=classic;html=1;rounded=0;entryX=1.09;entryY=1.131;entryDx=0;entryDy=0;entryPerimeter=0;" edge="1" parent="1" target="49Ez8LQvkiXUo5bIbuk2-45">
          <mxGeometry width="50" height="50" relative="1" as="geometry">
            <mxPoint x="560" y="274" as="sourcePoint" />
            <mxPoint x="610" y="270" as="targetPoint" />
          </mxGeometry>
        </mxCell>
        <mxCell id="49Ez8LQvkiXUo5bIbuk2-45" value="0" style="text;html=1;align=center;verticalAlign=middle;resizable=0;points=[];autosize=1;strokeColor=none;fillColor=none;" vertex="1" parent="1">
          <mxGeometry x="550" y="240" width="30" height="30" as="geometry" />
        </mxCell>
        <mxCell id="49Ez8LQvkiXUo5bIbuk2-46" value="MUX" style="verticalLabelPosition=middle;verticalAlign=middle;html=1;shape=trapezoid;perimeter=trapezoidPerimeter;whiteSpace=wrap;size=0.23;arcSize=10;flipV=1;labelPosition=center;align=center;direction=south;strokeWidth=1;" vertex="1" parent="1">
          <mxGeometry x="580" y="486" width="40" height="118" as="geometry" />
        </mxCell>
        <mxCell id="49Ez8LQvkiXUo5bIbuk2-47" value="COS&lt;br&gt;&lt;br&gt;acc" style="rounded=0;whiteSpace=wrap;html=1;strokeWidth=2;shadow=1;" vertex="1" parent="1">
          <mxGeometry x="720" y="460" width="40" height="80" as="geometry" />
        </mxCell>
        <mxCell id="49Ez8LQvkiXUo5bIbuk2-48" value="" style="shape=orEllipse;perimeter=ellipsePerimeter;whiteSpace=wrap;html=1;backgroundOutline=1;strokeWidth=2;" vertex="1" parent="1">
          <mxGeometry x="640" y="476" width="50" height="50" as="geometry" />
        </mxCell>
        <mxCell id="49Ez8LQvkiXUo5bIbuk2-49" value="" style="endArrow=classic;html=1;rounded=0;entryX=0;entryY=1;entryDx=0;entryDy=0;exitX=0.5;exitY=0;exitDx=0;exitDy=0;" edge="1" parent="1" source="49Ez8LQvkiXUo5bIbuk2-46" target="49Ez8LQvkiXUo5bIbuk2-48">
          <mxGeometry width="50" height="50" relative="1" as="geometry">
            <mxPoint x="650" y="556" as="sourcePoint" />
            <mxPoint x="700" y="506" as="targetPoint" />
          </mxGeometry>
        </mxCell>
        <mxCell id="49Ez8LQvkiXUo5bIbuk2-50" value="" style="endArrow=none;html=1;rounded=0;" edge="1" parent="1">
          <mxGeometry width="50" height="50" relative="1" as="geometry">
            <mxPoint x="560" y="620" as="sourcePoint" />
            <mxPoint x="560" y="576" as="targetPoint" />
          </mxGeometry>
        </mxCell>
        <mxCell id="49Ez8LQvkiXUo5bIbuk2-51" value="" style="endArrow=classic;html=1;rounded=0;entryX=0.75;entryY=1;entryDx=0;entryDy=0;" edge="1" parent="1" target="49Ez8LQvkiXUo5bIbuk2-46">
          <mxGeometry width="50" height="50" relative="1" as="geometry">
            <mxPoint x="560" y="575" as="sourcePoint" />
            <mxPoint x="610" y="568" as="targetPoint" />
          </mxGeometry>
        </mxCell>
        <mxCell id="49Ez8LQvkiXUo5bIbuk2-52" value="" style="endArrow=none;html=1;rounded=0;" edge="1" parent="1">
          <mxGeometry width="50" height="50" relative="1" as="geometry">
            <mxPoint x="560" y="620" as="sourcePoint" />
            <mxPoint x="780" y="620" as="targetPoint" />
          </mxGeometry>
        </mxCell>
        <mxCell id="49Ez8LQvkiXUo5bIbuk2-54" value="" style="endArrow=none;html=1;rounded=0;" edge="1" parent="1">
          <mxGeometry width="50" height="50" relative="1" as="geometry">
            <mxPoint x="780" y="620" as="sourcePoint" />
            <mxPoint x="780" y="500" as="targetPoint" />
          </mxGeometry>
        </mxCell>
        <mxCell id="49Ez8LQvkiXUo5bIbuk2-55" value="" style="endArrow=classic;html=1;rounded=0;entryX=0;entryY=0.5;entryDx=0;entryDy=0;exitX=1;exitY=0.5;exitDx=0;exitDy=0;" edge="1" parent="1" source="49Ez8LQvkiXUo5bIbuk2-48" target="49Ez8LQvkiXUo5bIbuk2-47">
          <mxGeometry width="50" height="50" relative="1" as="geometry">
            <mxPoint x="750" y="476" as="sourcePoint" />
            <mxPoint x="800" y="426" as="targetPoint" />
          </mxGeometry>
        </mxCell>
        <mxCell id="49Ez8LQvkiXUo5bIbuk2-56" value="" style="endArrow=classic;html=1;rounded=0;entryX=0;entryY=0;entryDx=0;entryDy=0;exitX=1;exitY=0.5;exitDx=0;exitDy=0;" edge="1" parent="1" target="49Ez8LQvkiXUo5bIbuk2-48" source="49Ez8LQvkiXUo5bIbuk2-18">
          <mxGeometry width="50" height="50" relative="1" as="geometry">
            <mxPoint x="560" y="434" as="sourcePoint" />
            <mxPoint x="610" y="386" as="targetPoint" />
          </mxGeometry>
        </mxCell>
        <mxCell id="49Ez8LQvkiXUo5bIbuk2-57" value="" style="endArrow=classic;html=1;rounded=0;entryX=0.25;entryY=1;entryDx=0;entryDy=0;" edge="1" parent="1" target="49Ez8LQvkiXUo5bIbuk2-46">
          <mxGeometry width="50" height="50" relative="1" as="geometry">
            <mxPoint x="560" y="516" as="sourcePoint" />
            <mxPoint x="610" y="516" as="targetPoint" />
          </mxGeometry>
        </mxCell>
        <mxCell id="49Ez8LQvkiXUo5bIbuk2-58" value="0" style="text;html=1;align=center;verticalAlign=middle;resizable=0;points=[];autosize=1;strokeColor=none;fillColor=none;" vertex="1" parent="1">
          <mxGeometry x="550" y="486" width="30" height="30" as="geometry" />
        </mxCell>
        <mxCell id="49Ez8LQvkiXUo5bIbuk2-59" value="DAC&lt;br&gt;sample" style="rounded=0;whiteSpace=wrap;html=1;strokeWidth=2;" vertex="1" parent="1">
          <mxGeometry x="880" y="60" width="50" height="82" as="geometry" />
        </mxCell>
        <mxCell id="49Ez8LQvkiXUo5bIbuk2-60" value="" style="endArrow=classic;html=1;rounded=0;entryX=0;entryY=0.5;entryDx=0;entryDy=0;exitX=1;exitY=0.5;exitDx=0;exitDy=0;" edge="1" parent="1" source="49Ez8LQvkiXUo5bIbuk2-12" target="49Ez8LQvkiXUo5bIbuk2-59">
          <mxGeometry width="50" height="50" relative="1" as="geometry">
            <mxPoint x="461" y="68" as="sourcePoint" />
            <mxPoint x="560" y="134" as="targetPoint" />
          </mxGeometry>
        </mxCell>
        <mxCell id="49Ez8LQvkiXUo5bIbuk2-61" value="" style="shape=flexArrow;endArrow=classic;html=1;rounded=0;entryX=0;entryY=0.5;entryDx=0;entryDy=0;" edge="1" parent="1">
          <mxGeometry width="50" height="50" relative="1" as="geometry">
            <mxPoint x="930" y="100.5" as="sourcePoint" />
            <mxPoint x="1050" y="100.5" as="targetPoint" />
          </mxGeometry>
        </mxCell>
        <mxCell id="49Ez8LQvkiXUo5bIbuk2-62" value="" style="endArrow=classic;html=1;rounded=0;entryX=0;entryY=0;entryDx=0;entryDy=0;exitX=1;exitY=0.5;exitDx=0;exitDy=0;" edge="1" parent="1" source="49Ez8LQvkiXUo5bIbuk2-2" target="49Ez8LQvkiXUo5bIbuk2-7">
          <mxGeometry width="50" height="50" relative="1" as="geometry">
            <mxPoint x="140" y="37.5" as="sourcePoint" />
            <mxPoint x="190" y="-12.5" as="targetPoint" />
          </mxGeometry>
        </mxCell>
        <mxCell id="49Ez8LQvkiXUo5bIbuk2-63" value="" style="endArrow=none;html=1;rounded=0;" edge="1" parent="1">
          <mxGeometry width="50" height="50" relative="1" as="geometry">
            <mxPoint x="180" y="158.5" as="sourcePoint" />
            <mxPoint x="340" y="158.5" as="targetPoint" />
          </mxGeometry>
        </mxCell>
        <mxCell id="49Ez8LQvkiXUo5bIbuk2-64" value="" style="endArrow=none;html=1;rounded=0;" edge="1" parent="1">
          <mxGeometry width="50" height="50" relative="1" as="geometry">
            <mxPoint x="180" y="158.5" as="sourcePoint" />
            <mxPoint x="180" y="138.5" as="targetPoint" />
          </mxGeometry>
        </mxCell>
        <mxCell id="49Ez8LQvkiXUo5bIbuk2-65" value="" style="endArrow=classic;html=1;rounded=0;entryX=0;entryY=1;entryDx=0;entryDy=0;" edge="1" parent="1" target="49Ez8LQvkiXUo5bIbuk2-7">
          <mxGeometry width="50" height="50" relative="1" as="geometry">
            <mxPoint x="180" y="137.5" as="sourcePoint" />
            <mxPoint x="140" y="127.5" as="targetPoint" />
          </mxGeometry>
        </mxCell>
        <mxCell id="49Ez8LQvkiXUo5bIbuk2-66" value="from ADC" style="text;html=1;align=center;verticalAlign=middle;resizable=0;points=[];autosize=1;strokeColor=none;fillColor=none;" vertex="1" parent="1">
          <mxGeometry x="240" y="470" width="80" height="30" as="geometry" />
        </mxCell>
        <mxCell id="49Ez8LQvkiXUo5bIbuk2-67" value="to DAC" style="text;html=1;align=center;verticalAlign=middle;resizable=0;points=[];autosize=1;strokeColor=none;fillColor=none;" vertex="1" parent="1">
          <mxGeometry x="960" y="68" width="60" height="30" as="geometry" />
        </mxCell>
        <mxCell id="49Ez8LQvkiXUo5bIbuk2-68" value="Zero&lt;br&gt;cross&lt;br&gt;detector" style="rounded=0;whiteSpace=wrap;html=1;strokeWidth=2;" vertex="1" parent="1">
          <mxGeometry x="470" y="620" width="50" height="80" as="geometry" />
        </mxCell>
        <mxCell id="49Ez8LQvkiXUo5bIbuk2-69" value="" style="endArrow=classic;html=1;rounded=0;entryX=0;entryY=0.5;entryDx=0;entryDy=0;exitX=1;exitY=0.5;exitDx=0;exitDy=0;" edge="1" parent="1" source="49Ez8LQvkiXUo5bIbuk2-23" target="49Ez8LQvkiXUo5bIbuk2-68">
          <mxGeometry width="50" height="50" relative="1" as="geometry">
            <mxPoint x="410" y="520" as="sourcePoint" />
            <mxPoint x="840" y="500" as="targetPoint" />
          </mxGeometry>
        </mxCell>
        <mxCell id="49Ez8LQvkiXUo5bIbuk2-70" value="" style="edgeStyle=elbowEdgeStyle;elbow=horizontal;endArrow=classic;html=1;curved=0;rounded=0;endSize=8;startSize=8;exitX=1;exitY=0.25;exitDx=0;exitDy=0;entryX=1;entryY=0.5;entryDx=0;entryDy=0;" edge="1" parent="1" source="49Ez8LQvkiXUo5bIbuk2-68" target="49Ez8LQvkiXUo5bIbuk2-46">
          <mxGeometry width="50" height="50" relative="1" as="geometry">
            <mxPoint x="790" y="550" as="sourcePoint" />
            <mxPoint x="840" y="500" as="targetPoint" />
            <Array as="points">
              <mxPoint x="600" y="630" />
            </Array>
          </mxGeometry>
        </mxCell>
        <mxCell id="49Ez8LQvkiXUo5bIbuk2-72" value="" style="edgeStyle=elbowEdgeStyle;elbow=vertical;endArrow=classic;html=1;curved=0;rounded=0;endSize=8;startSize=8;entryX=1;entryY=0.5;entryDx=0;entryDy=0;" edge="1" parent="1" target="49Ez8LQvkiXUo5bIbuk2-24">
          <mxGeometry width="50" height="50" relative="1" as="geometry">
            <mxPoint x="540" y="640" as="sourcePoint" />
            <mxPoint x="840" y="500" as="targetPoint" />
            <Array as="points">
              <mxPoint x="580" y="400" />
            </Array>
          </mxGeometry>
        </mxCell>
        <mxCell id="49Ez8LQvkiXUo5bIbuk2-73" value="COS&lt;br&gt;half&lt;br&gt;period&lt;br&gt;sum" style="rounded=0;whiteSpace=wrap;html=1;strokeWidth=2;shadow=1;" vertex="1" parent="1">
          <mxGeometry x="820" y="460" width="40" height="80" as="geometry" />
        </mxCell>
        <mxCell id="49Ez8LQvkiXUo5bIbuk2-74" value="SIN&lt;br&gt;half&lt;br&gt;period&lt;br&gt;sum" style="rounded=0;whiteSpace=wrap;html=1;strokeWidth=2;shadow=1;" vertex="1" parent="1">
          <mxGeometry x="820" y="220" width="40" height="80" as="geometry" />
        </mxCell>
        <mxCell id="49Ez8LQvkiXUo5bIbuk2-91" style="edgeStyle=orthogonalEdgeStyle;rounded=0;orthogonalLoop=1;jettySize=auto;html=1;exitX=1;exitY=0.5;exitDx=0;exitDy=0;entryX=0;entryY=0.5;entryDx=0;entryDy=0;" edge="1" parent="1" source="49Ez8LQvkiXUo5bIbuk2-75" target="49Ez8LQvkiXUo5bIbuk2-82">
          <mxGeometry relative="1" as="geometry" />
        </mxCell>
        <mxCell id="49Ez8LQvkiXUo5bIbuk2-75" value="" style="shape=orEllipse;perimeter=ellipsePerimeter;whiteSpace=wrap;html=1;backgroundOutline=1;strokeWidth=2;" vertex="1" parent="1">
          <mxGeometry x="880" y="300" width="50" height="51" as="geometry" />
        </mxCell>
        <mxCell id="49Ez8LQvkiXUo5bIbuk2-76" value="" style="edgeStyle=elbowEdgeStyle;elbow=horizontal;endArrow=classic;html=1;curved=0;rounded=0;endSize=8;startSize=8;exitX=1;exitY=0.75;exitDx=0;exitDy=0;entryX=0.5;entryY=1;entryDx=0;entryDy=0;" edge="1" parent="1" source="49Ez8LQvkiXUo5bIbuk2-68" target="49Ez8LQvkiXUo5bIbuk2-73">
          <mxGeometry width="50" height="50" relative="1" as="geometry">
            <mxPoint x="530" y="671" as="sourcePoint" />
            <mxPoint x="610" y="600" as="targetPoint" />
            <Array as="points">
              <mxPoint x="840" y="600" />
            </Array>
          </mxGeometry>
        </mxCell>
        <mxCell id="49Ez8LQvkiXUo5bIbuk2-77" value="" style="endArrow=classic;html=1;rounded=0;entryX=0;entryY=0.5;entryDx=0;entryDy=0;" edge="1" parent="1" target="49Ez8LQvkiXUo5bIbuk2-74">
          <mxGeometry width="50" height="50" relative="1" as="geometry">
            <mxPoint x="760" y="260" as="sourcePoint" />
            <mxPoint x="810" y="210" as="targetPoint" />
          </mxGeometry>
        </mxCell>
        <mxCell id="49Ez8LQvkiXUo5bIbuk2-78" value="" style="endArrow=classic;html=1;rounded=0;entryX=0;entryY=0.5;entryDx=0;entryDy=0;" edge="1" parent="1">
          <mxGeometry width="50" height="50" relative="1" as="geometry">
            <mxPoint x="760" y="500.40999999999997" as="sourcePoint" />
            <mxPoint x="820" y="500.40999999999997" as="targetPoint" />
          </mxGeometry>
        </mxCell>
        <mxCell id="49Ez8LQvkiXUo5bIbuk2-79" value="" style="edgeStyle=elbowEdgeStyle;elbow=vertical;endArrow=classic;html=1;curved=0;rounded=0;endSize=8;startSize=8;entryX=0.5;entryY=1;entryDx=0;entryDy=0;" edge="1" parent="1" target="49Ez8LQvkiXUo5bIbuk2-74">
          <mxGeometry width="50" height="50" relative="1" as="geometry">
            <mxPoint x="800" y="680" as="sourcePoint" />
            <mxPoint x="1040" y="430" as="targetPoint" />
            <Array as="points">
              <mxPoint x="910" y="400" />
            </Array>
          </mxGeometry>
        </mxCell>
        <mxCell id="49Ez8LQvkiXUo5bIbuk2-80" value="" style="endArrow=classic;html=1;rounded=0;exitX=1;exitY=0.5;exitDx=0;exitDy=0;entryX=0;entryY=0;entryDx=0;entryDy=0;" edge="1" parent="1" source="49Ez8LQvkiXUo5bIbuk2-74" target="49Ez8LQvkiXUo5bIbuk2-75">
          <mxGeometry width="50" height="50" relative="1" as="geometry">
            <mxPoint x="990" y="480" as="sourcePoint" />
            <mxPoint x="1040" y="430" as="targetPoint" />
          </mxGeometry>
        </mxCell>
        <mxCell id="49Ez8LQvkiXUo5bIbuk2-81" value="" style="endArrow=classic;html=1;rounded=0;entryX=0;entryY=1;entryDx=0;entryDy=0;" edge="1" parent="1" target="49Ez8LQvkiXUo5bIbuk2-75">
          <mxGeometry width="50" height="50" relative="1" as="geometry">
            <mxPoint x="780" y="343" as="sourcePoint" />
            <mxPoint x="1050" y="420" as="targetPoint" />
          </mxGeometry>
        </mxCell>
        <mxCell id="49Ez8LQvkiXUo5bIbuk2-82" value="SIN&lt;br&gt;period&lt;br&gt;sum" style="rounded=0;whiteSpace=wrap;html=1;strokeWidth=2;shadow=1;" vertex="1" parent="1">
          <mxGeometry x="950" y="285.5" width="40" height="80" as="geometry" />
        </mxCell>
        <mxCell id="49Ez8LQvkiXUo5bIbuk2-83" value="COS&lt;br&gt;period&lt;br&gt;sum" style="rounded=0;whiteSpace=wrap;html=1;strokeWidth=2;shadow=1;" vertex="1" parent="1">
          <mxGeometry x="950" y="526" width="40" height="80" as="geometry" />
        </mxCell>
        <mxCell id="49Ez8LQvkiXUo5bIbuk2-84" value="" style="shape=orEllipse;perimeter=ellipsePerimeter;whiteSpace=wrap;html=1;backgroundOutline=1;strokeWidth=2;" vertex="1" parent="1">
          <mxGeometry x="880" y="540" width="50" height="51" as="geometry" />
        </mxCell>
        <mxCell id="49Ez8LQvkiXUo5bIbuk2-85" value="" style="endArrow=classic;html=1;rounded=0;exitX=1;exitY=0.5;exitDx=0;exitDy=0;entryX=0;entryY=0;entryDx=0;entryDy=0;" edge="1" parent="1" source="49Ez8LQvkiXUo5bIbuk2-73" target="49Ez8LQvkiXUo5bIbuk2-84">
          <mxGeometry width="50" height="50" relative="1" as="geometry">
            <mxPoint x="990" y="480" as="sourcePoint" />
            <mxPoint x="1040" y="430" as="targetPoint" />
          </mxGeometry>
        </mxCell>
        <mxCell id="49Ez8LQvkiXUo5bIbuk2-86" value="" style="endArrow=classic;html=1;rounded=0;entryX=0;entryY=1;entryDx=0;entryDy=0;" edge="1" parent="1">
          <mxGeometry width="50" height="50" relative="1" as="geometry">
            <mxPoint x="780" y="580" as="sourcePoint" />
            <mxPoint x="887" y="580" as="targetPoint" />
          </mxGeometry>
        </mxCell>
        <mxCell id="49Ez8LQvkiXUo5bIbuk2-87" value="" style="edgeStyle=elbowEdgeStyle;elbow=vertical;endArrow=classic;html=1;curved=0;rounded=0;endSize=8;startSize=8;entryX=0.5;entryY=1;entryDx=0;entryDy=0;" edge="1" parent="1" target="49Ez8LQvkiXUo5bIbuk2-82">
          <mxGeometry width="50" height="50" relative="1" as="geometry">
            <mxPoint x="840" y="400" as="sourcePoint" />
            <mxPoint x="1040" y="430" as="targetPoint" />
            <Array as="points">
              <mxPoint x="900" y="400" />
            </Array>
          </mxGeometry>
        </mxCell>
        <mxCell id="49Ez8LQvkiXUo5bIbuk2-88" value="" style="edgeStyle=elbowEdgeStyle;elbow=vertical;endArrow=classic;html=1;curved=0;rounded=0;endSize=8;startSize=8;entryX=0.5;entryY=1;entryDx=0;entryDy=0;" edge="1" parent="1" target="49Ez8LQvkiXUo5bIbuk2-83">
          <mxGeometry width="50" height="50" relative="1" as="geometry">
            <mxPoint x="840" y="680" as="sourcePoint" />
            <mxPoint x="1040" y="430" as="targetPoint" />
            <Array as="points">
              <mxPoint x="910" y="680" />
            </Array>
          </mxGeometry>
        </mxCell>
        <mxCell id="49Ez8LQvkiXUo5bIbuk2-89" value="" style="endArrow=classic;html=1;rounded=0;entryX=0;entryY=0.5;entryDx=0;entryDy=0;exitX=1;exitY=0.5;exitDx=0;exitDy=0;" edge="1" parent="1" source="49Ez8LQvkiXUo5bIbuk2-84" target="49Ez8LQvkiXUo5bIbuk2-83">
          <mxGeometry width="50" height="50" relative="1" as="geometry">
            <mxPoint x="930" y="570" as="sourcePoint" />
            <mxPoint x="980" y="520" as="targetPoint" />
          </mxGeometry>
        </mxCell>
        <mxCell id="49Ez8LQvkiXUo5bIbuk2-92" value="COS&lt;br&gt;LP&lt;br&gt;filter" style="rounded=0;whiteSpace=wrap;html=1;strokeWidth=2;" vertex="1" parent="1">
          <mxGeometry x="1010" y="526" width="40" height="80" as="geometry" />
        </mxCell>
        <mxCell id="49Ez8LQvkiXUo5bIbuk2-93" value="SIN&lt;br&gt;LP&lt;br&gt;filter" style="rounded=0;whiteSpace=wrap;html=1;strokeWidth=2;" vertex="1" parent="1">
          <mxGeometry x="1010" y="285.5" width="40" height="80" as="geometry" />
        </mxCell>
        <mxCell id="49Ez8LQvkiXUo5bIbuk2-94" value="" style="endArrow=classic;html=1;rounded=0;entryX=0;entryY=0.5;entryDx=0;entryDy=0;exitX=1;exitY=0.5;exitDx=0;exitDy=0;" edge="1" parent="1" source="49Ez8LQvkiXUo5bIbuk2-82" target="49Ez8LQvkiXUo5bIbuk2-93">
          <mxGeometry width="50" height="50" relative="1" as="geometry">
            <mxPoint x="990" y="331" as="sourcePoint" />
            <mxPoint x="1040" y="281" as="targetPoint" />
          </mxGeometry>
        </mxCell>
        <mxCell id="49Ez8LQvkiXUo5bIbuk2-95" value="" style="shape=flexArrow;endArrow=classic;html=1;rounded=0;exitX=1;exitY=0.5;exitDx=0;exitDy=0;" edge="1" parent="1" source="49Ez8LQvkiXUo5bIbuk2-93">
          <mxGeometry width="50" height="50" relative="1" as="geometry">
            <mxPoint x="1050" y="331" as="sourcePoint" />
            <mxPoint x="1110" y="326" as="targetPoint" />
          </mxGeometry>
        </mxCell>
        <mxCell id="49Ez8LQvkiXUo5bIbuk2-96" value="" style="shape=flexArrow;endArrow=classic;html=1;rounded=0;exitX=1;exitY=0.5;exitDx=0;exitDy=0;" edge="1" parent="1">
          <mxGeometry width="50" height="50" relative="1" as="geometry">
            <mxPoint x="1050" y="565.5699999999999" as="sourcePoint" />
            <mxPoint x="1110" y="565.5699999999999" as="targetPoint" />
          </mxGeometry>
        </mxCell>
        <mxCell id="49Ez8LQvkiXUo5bIbuk2-97" value="to low frequency part&lt;br&gt;(atan2 input)" style="text;html=1;align=center;verticalAlign=middle;resizable=0;points=[];autosize=1;strokeColor=none;fillColor=none;" vertex="1" parent="1">
          <mxGeometry x="990" y="436" width="130" height="40" as="geometry" />
        </mxCell>
        <mxCell id="49Ez8LQvkiXUo5bIbuk2-98" value="smooth &lt;br&gt;averaged&lt;br&gt;ADC*SIN" style="text;html=1;align=center;verticalAlign=middle;resizable=0;points=[];autosize=1;strokeColor=none;fillColor=none;" vertex="1" parent="1">
          <mxGeometry x="1050" y="351" width="70" height="60" as="geometry" />
        </mxCell>
        <mxCell id="49Ez8LQvkiXUo5bIbuk2-99" value="smooth &lt;br&gt;averaged&lt;br&gt;ADC*COS" style="text;html=1;align=center;verticalAlign=middle;resizable=0;points=[];autosize=1;strokeColor=none;fillColor=none;" vertex="1" parent="1">
          <mxGeometry x="1050" y="490" width="80" height="60" as="geometry" />
        </mxCell>
        <mxCell id="49Ez8LQvkiXUo5bIbuk2-100" value="" style="endArrow=classic;html=1;rounded=0;entryX=0;entryY=0.5;entryDx=0;entryDy=0;" edge="1" parent="1" target="49Ez8LQvkiXUo5bIbuk2-92">
          <mxGeometry width="50" height="50" relative="1" as="geometry">
            <mxPoint x="990" y="566" as="sourcePoint" />
            <mxPoint x="1040" y="516" as="targetPoint" />
          </mxGeometry>
        </mxCell>
        <mxCell id="49Ez8LQvkiXUo5bIbuk2-101" value="&lt;font style=&quot;font-size: 16px;&quot;&gt;&lt;b&gt;FPGA based current sensing theremin sensor - RF part data flow: DCO and quadrant phase detector&lt;/b&gt;&lt;/font&gt;" style="text;html=1;align=center;verticalAlign=middle;resizable=0;points=[];autosize=1;strokeColor=none;fillColor=none;" vertex="1" parent="1">
          <mxGeometry x="260" y="10" width="780" height="30" as="geometry" />
        </mxCell>
        <mxCell id="49Ez8LQvkiXUo5bIbuk2-102" value="LP &lt;br&gt;filter" style="rounded=0;whiteSpace=wrap;html=1;strokeWidth=2;" vertex="1" parent="1">
          <mxGeometry x="170" y="220" width="40" height="60" as="geometry" />
        </mxCell>
        <mxCell id="49Ez8LQvkiXUo5bIbuk2-103" value="" style="endArrow=classic;html=1;rounded=0;entryX=0;entryY=0.5;entryDx=0;entryDy=0;exitX=1;exitY=0.5;exitDx=0;exitDy=0;" edge="1" parent="1" source="49Ez8LQvkiXUo5bIbuk2-2" target="49Ez8LQvkiXUo5bIbuk2-102">
          <mxGeometry width="50" height="50" relative="1" as="geometry">
            <mxPoint x="150" y="90" as="sourcePoint" />
            <mxPoint x="217" y="90" as="targetPoint" />
          </mxGeometry>
        </mxCell>
        <mxCell id="49Ez8LQvkiXUo5bIbuk2-104" value="" style="shape=flexArrow;endArrow=classic;html=1;rounded=0;exitX=1;exitY=0.5;exitDx=0;exitDy=0;" edge="1" parent="1">
          <mxGeometry width="50" height="50" relative="1" as="geometry">
            <mxPoint x="10" y="79.5" as="sourcePoint" />
            <mxPoint x="100" y="79.5" as="targetPoint" />
          </mxGeometry>
        </mxCell>
        <mxCell id="49Ez8LQvkiXUo5bIbuk2-105" value="target&lt;br&gt;phase&lt;br&gt;icrement" style="text;html=1;align=center;verticalAlign=middle;resizable=0;points=[];autosize=1;strokeColor=none;fillColor=none;" vertex="1" parent="1">
          <mxGeometry x="10" y="98" width="70" height="60" as="geometry" />
        </mxCell>
        <mxCell id="49Ez8LQvkiXUo5bIbuk2-106" value="current&lt;br&gt;phase&lt;br&gt;increment&lt;br&gt;as seen&lt;br&gt;by LC tank" style="text;html=1;align=center;verticalAlign=middle;resizable=0;points=[];autosize=1;strokeColor=none;fillColor=none;" vertex="1" parent="1">
          <mxGeometry x="225" y="261" width="80" height="90" as="geometry" />
        </mxCell>
        <mxCell id="49Ez8LQvkiXUo5bIbuk2-107" value="CURRENT_PHASE_INC" style="text;html=1;align=center;verticalAlign=middle;resizable=0;points=[];autosize=1;strokeColor=none;fillColor=none;" vertex="1" parent="1">
          <mxGeometry x="170" y="190" width="160" height="30" as="geometry" />
        </mxCell>
      </root>
    </mxGraphModel>
  </diagram>
</mxfile>
